<?xml version="1.0" encoding="UTF-8" standalone="no"?><!DOCTYPE svg PUBLIC "-//W3C//DTD SVG 1.1//EN" "http://www.w3.org/Graphics/SVG/1.1/DTD/svg11.dtd"><svg width="100%" height="100%" viewBox="0 0 4267 4267" version="1.1" xmlns="http://www.w3.org/2000/svg" xmlns:xlink="http://www.w3.org/1999/xlink" xml:space="preserve" xmlns:serif="http://www.serif.com/" style="fill-rule:evenodd;clip-rule:evenodd;stroke-linejoin:round;stroke-miterlimit:2;"><g><path d="M4266.67,2133.33c-0,-1178.21 -955.125,-2133.33 -2133.33,-2133.33c-1178.21,0 -2133.33,955.125 -2133.33,2133.33c-0,1064.81 780.129,1947.38 1800,2107.42l-0,-1490.75l-541.667,0l0,-616.667l541.667,0l-0,-470c-0,-534.666 318.492,-830 805.792,-830c233.404,0 477.541,41.667 477.541,41.667l0,525l-269.008,0c-265.012,0 -347.658,164.446 -347.658,333.154l-0,400.179l591.666,0l-94.583,616.667l-497.083,0l-0,1490.75c1019.87,-160.042 1800,-1042.61 1800,-2107.42Z" style="fill:#fff;fill-rule:nonzero;"/></g></svg>